<?xml version="1.0" encoding="utf-8"?>
<?xml-stylesheet type="text/xsl" href="rss1.xsl"?>
<rss version="2.0" xmlns:atom="http://www.w3.org/2005/Atom" xmlns:content="http://purl.org/rss/1.0/modules/content/" xmlns:dc="http://purl.org/dc/elements/1.1/" xmlns:media="http://search.yahoo.com/mrss/">
<channel>
 <title>Getty</title>
 <link>http://www.gettyimg.com/</link>
 <atom:link href="http://www.gettyimg.com/" rel="self" type="application/rss+xml" />

 
                <item>
                <title><![CDATA[【Cinema Center】MOVIE - Baby.Geniuses.1999.720p.TUBI.WEB-DL.AAC2.0.x264-Samuel]]></title>
                <link><![CDATA[https://sharemania.us/threads/baby-geniuses-1999-720p-tubi-web-dl-aac2-0-x264-samuel.244247/]]></link>
                <description><![CDATA[<article>
<blockquote class="messageText SelectQuoteContainer ugc baseHtml">
<div style="text-align: center"><b><span style="font-size: 26px">Baby Geniuses</span></b><br>
<img src="https://i.imgur.com/6jrGqHz.jpeg" class="bbCodeImage LbImage" alt="[​IMG]" data-url="https://i.imgur.com/6jrGqHz.jpeg" style=""><br>
<a href="https://i.imgur.com/xoSWb1r.jpeg" target="_blank" class="externalLink" rel="nofollow"><b>Alternate Artwork 1</b></a> | <a href="https://i.imgur.com/3REvMaK.jpeg" target="_blank" class="externalLink" rel="nofollow"><b>Alternate Artwork 2</b></a> | <a href="https://i.imgur.com/6anxyup.jpeg" target="_blank" class="externalLink" rel="nofollow"><b>Poster 1</b></a> | <a href="https://i.imgur.com/Jp8NSbF.jpeg" target="_blank" class="externalLink" rel="nofollow"><b>Poster 2</b></a> | <a href="https://i.imgur.com/WdMk5X2.jpeg" target="_blank" class="externalLink" rel="nofollow"><b>Thumbnail 1</b></a> | <a href="https://i.imgur.com/ff30mmC.jpeg" target="_blank" class="externalLink" rel="nofollow"><b>Thumbnail 2</b></a> | <a href="https://i.imgur.com/T7ktYv2.jpeg" target="_blank" class="externalLink" rel="nofollow"><b>Thumbnail 3</b></a> | <a href="https://i.imgur.com/2NSHUiR.jpeg" target="_blank" class="externalLink" rel="nofollow"><b>Thumbnail 4</b></a> | <a href="https://i.imgur.com/HN0Les7.jpeg" target="_blank" class="externalLink" rel="nofollow"><b>Key Art</b></a><br>
<br>
1999 • 1 hr 35 min • <img src="https://i.imgur.com/lmVOA1V.png" class="bbCodeImage LbImage" alt="[​IMG]" data-url="https://i.imgur.com/lmVOA1V.png" style=""> • PG<br>
Comedy • Kids &amp; Family<br>
<br>
<div class="bbCodeBlock bbCodeQuote">
<aside>
<blockquote class="quoteContainer"><div class="quote"><b><span style="font-size: 15px"><span style="font-family: 'Arial'">Description</span></span></b><br>
When a scheming billionaire decides to steal the pre-language baby code to take over the world, the little tykes team up and fight back.</div><div class="quoteExpand">Click to expand...</div></blockquote>
</aside>
</div>
<div class="bbCodeBlock bbCodeQuote">
<aside>
<blockquote class="quoteContainer"><div class="quote"><b><span style="font-size: 15px"><span style="font-family: 'Arial'">More Information</span></span></b><br>
<b>Subtitles:</b> English<br>
<br>
<b>Starring:</b> Kathleen Turner, Christopher Lloyd, Kim Cattrall, Dom DeLuise, Ruby Dee, Peter MacNicol<br>
<b>Directed by:</b> Bob Clark<br>
<br>
1999 • PG • AAC 2.0 • HD</div><div class="quoteExpand">Click to expand...</div></blockquote>
</aside>
</div>
<div class="bbCodeBlock bbCodeQuote">
<aside>
<blockquote class="quoteContainer"><div class="quote"><b><span style="font-size: 15px">Source</span></b><br>
<img src="https://i.imgur.com/EtiJUaf.png" class="bbCodeImage LbImage" alt="[​IMG]" data-url="https://i.imgur.com/EtiJUaf.png" style=""></div><div class="quoteExpand">Click to expand...</div></blockquote>
</aside>
</div>
<div class="bbCodeBlock bbCodeQuote">
<aside>
<blockquote class="quoteContainer"><div class="quote"><b><span style="font-size: 15px">Release Name</span></b><br>
Baby.Geniuses.1999.720p.TUBI.WEB-DL.AAC2.0.x264-Samuel</div><div class="quoteExpand">Click to expand...</div></blockquote>
</aside>
</div>
<div class="ToggleTriggerAnchor bbCodeSpoilerContainer">
<button type="button" class="button bbCodeSpoilerButton ToggleTrigger Tooltip JsOnly" data-target="> .SpoilerTarget"><span>Spoiler: <span class="SpoilerTitle">Media Information</span></span></button>
<div class="SpoilerTarget bbCodeSpoilerText">General<br>
Complete name : Baby.Geniuses.1999.720p.TUBI.WEB-DL.AAC2.0.x264-Samuel.mkv<br>
Format : Matroska<br>
Format version : Version 4<br>
File size : 1.70 GiB<br>
Duration : 1 h 36 min<br>
Overall bit rate : 2 528 kb/s<br>
Frame rate : 23.976 FPS<br>
Encoded date : 2024-05-11 03:05:10 UTC<br>
Writing application : mkvmerge v84.0 ('Sleeper') 64-bit<br>
Writing library : libebml v1.4.5 + libmatroska v1.7.1<br>
<br>
Video<br>
ID : 1<br>
Format : AVC<br>
Format/Info : Advanced Video Codec<br>
Format profile : High@L4<br>
Format settings : CABAC / 4 Ref Frames<br>
Format settings, CABAC : Yes<br>
Format settings, Reference frames : 4 frames<br>
Codec ID : V_MPEG4/ISO/AVC<br>
Duration : 1 h 36 min<br>
Bit rate : 2 400 kb/s<br>
Width : 1 280 pixels<br>
Height : 720 pixels<br>
Display aspect ratio : 16:9<br>
Frame rate mode : Constant<br>
Frame rate : 23.976 (24000/1001) FPS<br>
Color space : YUV<br>
Chroma subsampling : 4:2:0<br>
Bit depth : 8 bits<br>
Scan type : Progressive<br>
Bits/(Pixel*Frame) : 0.109<br>
Stream size : 1.61 GiB (95%)<br>
Writing library : x264 core 163 r3060 5db6aa6<br>
Encoding settings : cabac=1 / ref=4 / deblock=1:0:0 / analyse=0x3:0x113 / me=umh / subme=8 / psy=1 / psy_rd=1.00:0.00 / mixed_ref=1 / me_range=16 / chroma_me=1 / trellis=0 / 8x8dct=1 / cqm=0 / deadzone=21,11 / fast_pskip=1 / chroma_qp_offset=-2 / threads=1 / lookahead_threads=1 / sliced_threads=0 / nr=0 / decimate=1 / interlaced=0 / bluray_compat=0 / constrained_intra=0 / bframes=4 / b_pyramid=2 / b_adapt=2 / b_bias=0 / direct=3 / weightb=1 / open_gop=0 / weightp=2 / keyint=81 / keyint_min=41 / scenecut=0 / intra_refresh=0 / rc_lookahead=40 / rc=crf / mbtree=1 / crf=1.0 / qcomp=0.60 / qpmin=0 / qpmax=69 / qpstep=4 / vbv_maxrate=2400 / vbv_bufsize=1920 / crf_max=0.0 / nal_hrd=none / filler=0 / ip_ratio=1.41 / aq=1:1.00<br>
Default : Yes<br>
Forced : No<br>
<br>
Audio<br>
ID : 2<br>
Format : AAC LC<br>
Format/Info : Advanced Audio Codec Low Complexity<br>
Codec ID : A_AAC-2<br>
Duration : 1 h 36 min<br>
Bit rate : 126 kb/s<br>
Channel(s) : 2 channels<br>
Channel layout : L R<br>
Sampling rate : 44.1 kHz<br>
Frame rate : 43.066 FPS (1024 SPF)<br>
Compression mode : Lossy<br>
Stream size : 86.3 MiB (5%)<br>
Language : English<br>
Default : Yes<br>
Forced : No<br>
<br>
Text<br>
ID : 3<br>
Format : UTF-8<br>
Codec ID : S_TEXT/UTF8<br>
Codec ID/Info : UTF-8 Plain Text<br>
Duration : 1 h 30 min<br>
Bit rate : 78 b/s<br>
Frame rate : 0.246 FPS<br>
Count of elements : 1335<br>
Stream size : 51.9 KiB (0%)<br>
Language : English<br>
Default : No<br>
Forced : No</div>
</div><br>
<b>Screenshots</b><br>
<img src="https://i.imgur.com/gm8mzZE.png" class="bbCodeImage LbImage" alt="[​IMG]" data-url="https://i.imgur.com/gm8mzZE.png" style=""><br>
<br>
<b>Download</b><br>
<div class="bbCodeBlock bbCodeVfcHH HiddenContent">
<div class="attribution type">Hidden Content:</div>
<blockquote>You must reply before you can see the hidden data contained here.</blockquote>
</div></div>
<div class="messageTextEndMarker">&nbsp;</div>
</blockquote>
</article>]]></description>
                <author><![CDATA[Samuel]]></author>
                </item>

                
                <item>
                <title><![CDATA[【Live Audios (lossy)】MP3 - Beyoncé - Renaissance World Tour (Live)]]></title>
                <link><![CDATA[https://sharemania.us/threads/beyonc%C3%A9-renaissance-world-tour-live.244246/]]></link>
                <description><![CDATA[<article>
<blockquote class="messageText SelectQuoteContainer ugc baseHtml">
<div style="text-align: center"><img src="https://i.ibb.co/jkq5yD7/RWT.jpg" class="bbCodeImage LbImage" alt="[​IMG]" data-url="https://i.ibb.co/jkq5yD7/RWT.jpg" style=""> ​</div><br>
<div style="text-align: center"><span style="font-size: 26px"><b>Beyoncé - Renaissance World Tour (Live)</b></span><br>
<i>Audio recorded by me over my ELEVEN screenings of "Renaissance: a film by Beyoncé" on cinemas.<br>
I finally had time to analyze each cinema recording so I could edit and remaster the audio.<br>
I hope you love it as much as I do!</i><br>
<br>
<b>Tracklist</b><br>
<div class="bbCodeBlock bbCodeVfcHH HiddenContent">
<div class="attribution type">Hidden Content:</div>
<blockquote>You must either reply or click 'Like' to see the hidden information contained here.</blockquote>
</div><b>Info</b><br>
MP3 320 Kbps<br>
254 Mb<br>
<i>Edit by me!</i><br>
<br>
<b>Download</b><br>
<div class="bbCodeBlock bbCodeVfcHH HiddenContent">
<div class="attribution type">Hidden Content:</div>
<blockquote>You must reply before you can see the hidden data contained here.</blockquote>
</div></div>
<div class="messageTextEndMarker">&nbsp;</div>
</blockquote>
</article>]]></description>
                <author><![CDATA[franciscosimoessantos]]></author>
                </item>

                </channel></rss>